<?xml version="1.0" encoding="UTF-8"?>
<svg width="31px" height="25px" viewBox="0 0 31 25" version="1.1" xmlns="http://www.w3.org/2000/svg" xmlns:xlink="http://www.w3.org/1999/xlink">
    <!-- Generator: Sketch 52.5 (67469) - http://www.bohemiancoding.com/sketch -->
    <title>Icons/SVG/Service</title>
    <desc>Created with Sketch.</desc>
    <defs>
        <polygon id="path-1" points="0.493579925 0.041 23.897 0.041 23.897 25 0.493579925 25"></polygon>
    </defs>
    <g id="Page-1" stroke="none" stroke-width="1" fill="none" fill-rule="evenodd">
        <g id="Product-Icons" transform="translate(-117.000000, -429.000000)">
            <g id="Icons/SVG/Service" transform="translate(117.000000, 428.000000)">
                <g id="Group-3" transform="translate(7.000000, 0.959400)">
                    <mask id="mask-2" fill="white">
                        <use xlink:href="#path-1"></use>
                    </mask>
                    <g id="Clip-2"></g>
                    <path d="M12.3835,0.0418 C12.0075,0.0128 11.7425,0.4198 11.9155,0.7548 C12.1185,1.1498 12.2895,1.5648 12.4275,2.0008 C12.6065,2.5658 12.7215,3.1378 12.7765,3.7108 C12.7965,3.9288 12.9505,4.1008 13.1645,4.1458 C17.4475,5.0468 20.5535,9.1448 19.8445,13.8338 C19.3015,17.4238 16.4225,20.3438 12.8395,20.9308 C9.3005,21.5098 6.0885,19.9098 4.3095,17.2658 C4.1445,17.0208 3.8235,16.9428 3.5785,17.1078 C2.9825,17.5108 2.1765,18.0378 1.0245,17.9548 C0.6225,17.9258 0.3625,18.3618 0.5625,18.7108 C2.7565,22.5338 6.9035,25.0908 11.6485,24.9978 C18.1605,24.8698 23.6135,19.5448 23.8865,13.0358 C24.1705,6.2238 18.9995,0.5588 12.3835,0.0418" id="Fill-1" fill="#33475B" mask="url(#mask-2)"></path>
                </g>
                <path d="M14.8356,2.2864 C15.4986,2.8434 15.9586,3.5274 16.2156,4.3414 C16.4726,5.1544 16.5106,5.9744 16.3276,6.7974 C16.1466,7.6214 15.7556,8.3334 15.1556,8.9324 L8.9596,15.3544 C8.7446,15.5684 8.4986,15.6764 8.2206,15.6764 C7.9416,15.6764 7.6956,15.5684 7.4816,15.3544 L1.2846,8.9654 C0.6866,8.3444 0.2956,7.6214 0.1126,6.7974 C-0.0684,5.9744 -0.0314,5.1544 0.2256,4.3414 C0.4816,3.5274 0.9426,2.8434 1.6066,2.2864 C2.1846,1.7944 2.8376,1.4834 3.5646,1.3544 C4.2926,1.2264 5.0096,1.2804 5.7166,1.5154 C6.4226,1.7514 7.0436,2.1464 7.5786,2.7034 L8.2206,3.3464 L8.8626,2.7034 C9.3986,2.1464 10.0196,1.7514 10.7256,1.5154 C11.4316,1.2804 12.1486,1.2264 12.8766,1.3544 C13.6046,1.4834 14.2576,1.7944 14.8356,2.2864" id="Fill-4" fill="#FF7A59"></path>
            </g>
        </g>
    </g>
</svg>