<?xml version="1.0" encoding="UTF-8"?>
<svg width="25px" height="29px" viewBox="0 0 25 29" version="1.1" xmlns="http://www.w3.org/2000/svg" xmlns:xlink="http://www.w3.org/1999/xlink">
    <!-- Generator: Sketch 52.5 (67469) - http://www.bohemiancoding.com/sketch -->
    <title>Icons/SVG/Sales</title>
    <desc>Created with Sketch.</desc>
    <defs>
        <polygon id="path-1" points="0 0.981379439 25 0.981379439 25 17.8889614 0 17.8889614"></polygon>
        <polygon id="path-3" points="0.0426709162 0.4872 17.097653 0.4872 17.097653 17 0.0426709162 17"></polygon>
    </defs>
    <g id="Page-1" stroke="none" stroke-width="1" fill="none" fill-rule="evenodd">
        <g id="Product-Icons" transform="translate(-120.000000, -341.000000)">
            <g id="Icons/SVG/Sales" transform="translate(120.000000, 340.000000)">
                <g id="Group-3" transform="translate(0.000000, 0.018800)">
                    <mask id="mask-2" fill="white">
                        <use xlink:href="#path-1"></use>
                    </mask>
                    <g id="Clip-2"></g>
                    <path d="M4.0896,14.9756 C3.8136,13.4616 3.9246,11.8146 4.6936,10.0866 C5.9156,7.3426 8.4956,5.3376 11.4796,4.9926 C16.6566,4.3926 21.0486,8.4236 21.0486,13.4816 C21.0486,14.0556 20.8846,14.9146 20.7476,15.5316 C20.6516,15.9656 20.8486,16.4146 21.2406,16.6246 C21.7066,16.8736 22.3336,17.2436 22.8606,17.6686 C23.3936,18.0996 24.2136,17.8716 24.4206,17.2176 C24.8606,15.8316 25.0676,14.3436 24.9816,12.7916 C24.6266,6.3796 19.2486,1.1506 12.8286,0.9856 C5.7756,0.8046 -0.0004,6.4686 -0.0004,13.4816 C-0.0004,14.6606 0.1676,15.7976 0.4766,16.8766 C0.6986,17.6566 1.6826,17.8756 2.2126,17.2636 C2.6416,16.7706 3.1526,16.2686 3.6576,15.9726 C3.9986,15.7726 4.1596,15.3646 4.0896,14.9756" id="Fill-1" fill="#33475B" mask="url(#mask-2)"></path>
                </g>
                <g id="Group-6" transform="translate(4.000000, 13.018800)">
                    <mask id="mask-4" fill="white">
                        <use xlink:href="#path-3"></use>
                    </mask>
                    <g id="Clip-5"></g>
                    <path d="M16.2819,6.2872 L11.6299,5.4112 L9.7129,1.0822 C9.5389,0.6882 9.1689,0.4872 8.7979,0.4872 C8.4549,0.4872 8.1119,0.6582 7.9209,1.0082 L5.6509,5.1622 L0.9409,5.6472 C0.1169,5.7322 -0.2521,6.7252 0.3169,7.3282 L3.5659,10.7712 L2.5719,15.3992 C2.4309,16.0562 2.9489,16.6122 3.5489,16.6122 C3.6889,16.6122 3.8359,16.5812 3.9779,16.5142 L8.2569,14.4872 L12.3509,16.8622 C12.5139,16.9572 12.6849,17.0002 12.8519,17.0002 C13.4189,17.0002 13.9279,16.5052 13.8449,15.8702 L13.2399,11.1752 L16.7639,8.0142 C17.3819,7.4612 17.0959,6.4392 16.2819,6.2872" id="Fill-4" fill="#FF7A59" mask="url(#mask-4)"></path>
                </g>
            </g>
        </g>
    </g>
</svg>