<svg id="Layer_1" data-name="Layer 1" xmlns="http://www.w3.org/2000/svg" viewBox="0 0 144 144"><defs><style>.cls-1{fill:#33475b;}.cls-2{fill:#ff7a59;}</style></defs><title>OpsHub_color</title><path class="cls-1" d="M134.26,63.52A59.61,59.61,0,0,0,16.76,56a1.77,1.77,0,0,0,2.48,2L38.3,49.25A6.09,6.09,0,0,0,40.85,47,40.6,40.6,0,1,1,97,103.15a6.09,6.09,0,0,0-2.25,2.55l-8.68,19.06a1.77,1.77,0,0,0,2,2.48A59.61,59.61,0,0,0,134.26,63.52Z"/><path class="cls-2" d="M63.09,67.83a4.3,4.3,0,0,1-7.34-3h0a4.31,4.31,0,0,0-4.3-4.31h-9.9a4.31,4.31,0,0,0-4.3,4.31h0a4.3,4.3,0,0,1-7.34,3h0a4.31,4.31,0,0,0-6.09,0l-7,7a4.31,4.31,0,0,0,0,6.09h0a4.3,4.3,0,0,1-3,7.34h0a4.31,4.31,0,0,0-4.31,4.3v9.9a4.31,4.31,0,0,0,4.31,4.3h0a4.3,4.3,0,0,1,3,7.34h0a4.31,4.31,0,0,0,0,6.09l7,7a4.31,4.31,0,0,0,6.09,0h0a4.3,4.3,0,0,1,7.34,3h0a4.31,4.31,0,0,0,4.3,4.31h9.9a4.31,4.31,0,0,0,4.3-4.31h0a4.3,4.3,0,0,1,7.34-3h0a4.31,4.31,0,0,0,6.09,0l7-7a4.31,4.31,0,0,0,0-6.09h0a4.3,4.3,0,0,1,3-7.34h0a4.31,4.31,0,0,0,4.31-4.3v-9.9a4.31,4.31,0,0,0-4.31-4.3h0a4.3,4.3,0,0,1-3-7.34h0a4.31,4.31,0,0,0,0-6.09l-7-7A4.31,4.31,0,0,0,63.09,67.83Zm-8.72,37.54a11.13,11.13,0,1,1,0-15.74A11.12,11.12,0,0,1,54.37,105.37Z"/></svg>